<svg xmlns="http://www.w3.org/2000/svg" version="1.1" xmlns:xlink="http://www.w3.org/1999/xlink" width="120" height="120" x="0" y="0" viewBox="0 0 120 120" style="enable-background:new 0 0 512 512" xml:space="preserve" class=""><g><g fill-rule="evenodd" clip-rule="evenodd"><path fill="#ffffff" d="M20.156 60c0 -22.005 17.839 -39.844 39.844 -39.844s39.844 17.839 39.844 39.844 -17.839 39.844 -39.844 39.844 -39.844 -17.839 -39.844 -39.844zm39.844 -50.625c-3.741 0 -6.799 -2.922 -7.018 -6.608a57.48 57.48 0 0 0 -5.963 1.045c1.059 3.54 -0.816 7.335 -4.333 8.615 -3.517 1.28 -7.391 -0.421 -8.857 -3.812a57.585 57.585 0 0 0 -5.239 3.032c2.2 2.964 1.735 7.167 -1.13 9.571 -2.863 2.402 -7.078 2.133 -9.616 -0.543a57.903 57.903 0 0 0 -3.893 4.633c3.078 2.034 4.077 6.14 2.208 9.378 -1.871 3.241 -5.933 4.428 -9.236 2.772a57.075 57.075 0 0 0 -2.073 5.689c3.596 0.853 5.946 4.374 5.295 8.061 -0.649 3.683 -4.055 6.187 -7.721 5.765a58.105 58.105 0 0 0 -0.001 6.053c3.667 -0.422 7.073 2.082 7.722 5.764 0.65 3.687 -1.7 7.208 -5.297 8.061a57.243 57.243 0 0 0 2.072 5.69c3.303 -1.658 7.366 -0.471 9.237 2.771 1.869 3.238 0.871 7.344 -2.207 9.378a57.903 57.903 0 0 0 3.893 4.634c2.538 -2.676 6.753 -2.945 9.616 -0.543 2.865 2.404 3.33 6.605 1.132 9.569 1.688 1.099 3.436 2.112 5.239 3.032 1.466 -3.39 5.34 -5.09 8.855 -3.81 3.516 1.279 5.39 5.071 4.335 8.61a57.323 57.323 0 0 0 5.962 1.048c0.22 -3.685 3.278 -6.605 7.018 -6.605 3.741 0 6.799 2.922 7.018 6.608a57.469 57.469 0 0 0 5.963 -1.045c-1.059 -3.54 0.816 -7.335 4.333 -8.615 3.517 -1.28 7.391 0.421 8.856 3.812a57.536 57.536 0 0 0 5.24 -3.033c-2.2 -2.964 -1.735 -7.167 1.13 -9.571 2.863 -2.402 7.078 -2.133 9.616 0.543a57.952 57.952 0 0 0 3.893 -4.633c-3.078 -2.034 -4.077 -6.14 -2.208 -9.378 1.871 -3.241 5.933 -4.428 9.236 -2.772a57.075 57.075 0 0 0 2.073 -5.689c-3.596 -0.853 -5.946 -4.374 -5.295 -8.061 0.649 -3.683 4.055 -6.187 7.721 -5.765a58.366 58.366 0 0 0 0 -6.053c-3.667 0.422 -7.073 -2.082 -7.722 -5.764 -0.65 -3.687 1.7 -7.209 5.297 -8.061a57.224 57.224 0 0 0 -2.072 -5.69c-3.303 1.658 -7.367 0.471 -9.238 -2.771 -1.87 -3.238 -0.87 -7.346 2.209 -9.379a58.005 58.005 0 0 0 -3.893 -4.635c-2.538 2.678 -6.754 2.948 -9.618 0.545 -2.866 -2.404 -3.33 -6.608 -1.129 -9.572a57.567 57.567 0 0 0 -5.24 -3.033c-1.465 3.393 -5.34 5.095 -8.857 3.814 -3.518 -1.28 -5.392 -5.076 -4.333 -8.616a57.421 57.421 0 0 0 -5.964 -1.045c-0.218 3.686 -3.276 6.608 -7.017 6.608z" opacity="1" data-original="#ffffff"/><path fill="#dad0d3" d="M60 20.156c-22.005 0 -39.844 17.839 -39.844 39.844s17.839 39.844 39.844 39.844 39.844 -17.839 39.844 -39.844 -17.839 -39.844 -39.844 -39.844zm-30.469 39.844c0 -2.589 2.099 -4.688 4.688 -4.688s4.688 2.099 4.688 4.688 -2.099 4.687 -4.688 4.688c-2.589 0 -4.688 -2.099 -4.688 -4.688zm8.924 -14.916c-1.831 -1.831 -1.831 -4.799 0 -6.629 1.831 -1.831 4.799 -1.831 6.629 0s1.83 4.798 0 6.629 -4.798 1.831 -6.629 0zm16.857 -10.866c0 -2.589 2.099 -4.688 4.688 -4.688s4.688 2.099 4.688 4.688 -2.099 4.688 -4.688 4.688 -4.688 -2.099 -4.688 -4.688zm-7.031 25.781c0 -6.472 5.246 -11.719 11.719 -11.719s11.719 5.246 11.719 11.719 -5.246 11.719 -11.719 11.719 -11.719 -5.246 -11.719 -11.719zm7.031 25.781c0 -2.589 2.099 -4.688 4.688 -4.688s4.688 2.099 4.688 4.688 -2.099 4.688 -4.688 4.688c-2.589 0 -4.688 -2.099 -4.688 -4.688zm-16.857 -10.866c1.831 -1.83 4.799 -1.83 6.629 0 1.83 1.831 1.83 4.798 0 6.629 -1.831 1.831 -4.798 1.831 -6.629 0 -1.83 -1.83 -1.83 -4.798 0 -6.629zM81.094 60c0 -2.589 2.099 -4.688 4.688 -4.688s4.688 2.099 4.688 4.688 -2.099 4.688 -4.688 4.688c-2.589 0 -4.687 -2.099 -4.688 -4.688zm-6.178 14.915c1.831 -1.83 4.799 -1.83 6.629 0 1.83 1.831 1.83 4.798 0 6.629 -1.831 1.831 -4.799 1.831 -6.629 0 -1.83 -1.83 -1.83 -4.798 0 -6.629zm0 -36.46c1.831 -1.831 4.799 -1.831 6.629 0s1.83 4.798 0 6.629c-1.831 1.83 -4.799 1.83 -6.629 0s-1.83 -4.798 0 -6.629z" opacity="1" data-original="#dad0d3"/></g><path d="M119.919 56.853a2.344 2.344 0 0 0 -2.609 -2.207c-2.453 0.285 -4.716 -1.405 -5.146 -3.843 -0.431 -2.442 1.119 -4.802 3.529 -5.373a2.343 2.343 0 0 0 1.701 -2.965 59.855 59.855 0 0 0 -2.157 -5.923 2.343 2.343 0 0 0 -3.209 -1.177c-2.213 1.111 -4.917 0.299 -6.157 -1.848 -1.238 -2.144 -0.591 -4.89 1.471 -6.251a2.344 2.344 0 0 0 0.579 -3.368 60.531 60.531 0 0 0 -4.05 -4.822 2.343 2.343 0 0 0 -1.705 -0.745h-0.009a2.343 2.343 0 0 0 -1.701 0.732c-1.699 1.793 -4.515 1.952 -6.41 0.362 -1.897 -1.592 -2.228 -4.394 -0.754 -6.38a2.344 2.344 0 0 0 -0.603 -3.361 60.07 60.07 0 0 0 -5.453 -3.156 2.344 2.344 0 0 0 -3.217 1.159c-0.981 2.273 -3.574 3.389 -5.904 2.541 -2.33 -0.848 -3.599 -3.37 -2.889 -5.742a2.344 2.344 0 0 0 -1.72 -2.956 60.096 60.096 0 0 0 -6.207 -1.087 2.344 2.344 0 0 0 -2.622 2.188c-0.146 2.469 -2.201 4.403 -4.678 4.403 -2.477 0 -4.532 -1.934 -4.679 -4.403a2.344 2.344 0 0 0 -2.622 -2.188 60.001 60.001 0 0 0 -6.207 1.088 2.344 2.344 0 0 0 -1.72 2.956c0.709 2.372 -0.56 4.894 -2.889 5.741 -2.329 0.848 -4.922 -0.268 -5.903 -2.54a2.344 2.344 0 0 0 -3.217 -1.158 60.142 60.142 0 0 0 -5.453 3.156 2.343 2.343 0 0 0 -0.603 3.361c1.473 1.986 1.142 4.787 -0.755 6.379 -1.894 1.59 -4.71 1.431 -6.409 -0.36a2.344 2.344 0 0 0 -1.7 -0.731h-0.01a2.344 2.344 0 0 0 -1.704 0.745 60.519 60.519 0 0 0 -4.05 4.821 2.344 2.344 0 0 0 0.579 3.367c2.062 1.362 2.707 4.108 1.47 6.251 -1.239 2.146 -3.943 2.959 -6.155 1.849a2.343 2.343 0 0 0 -3.207 1.178 59.661 59.661 0 0 0 -2.158 5.922 2.344 2.344 0 0 0 1.701 2.965c2.409 0.571 3.959 2.932 3.528 5.373 -0.43 2.438 -2.689 4.126 -5.145 3.843a2.344 2.344 0 0 0 -2.609 2.207A61.005 61.005 0 0 0 0 60c0 1.046 0.027 2.106 0.081 3.148a2.344 2.344 0 0 0 2.609 2.207c2.455 -0.284 4.716 1.405 5.146 3.843 0.431 2.442 -1.119 4.802 -3.529 5.373a2.344 2.344 0 0 0 -1.701 2.965 59.751 59.751 0 0 0 2.157 5.923 2.344 2.344 0 0 0 3.208 1.177c2.212 -1.111 4.916 -0.299 6.156 1.848 1.237 2.143 0.592 4.889 -1.47 6.251a2.343 2.343 0 0 0 -0.578 3.367 60.442 60.442 0 0 0 4.05 4.821 2.344 2.344 0 0 0 1.704 0.744h0.009a2.344 2.344 0 0 0 1.7 -0.731c1.699 -1.792 4.515 -1.95 6.409 -0.36 1.896 1.591 2.228 4.392 0.756 6.377a2.344 2.344 0 0 0 0.604 3.36 60.11 60.11 0 0 0 5.452 3.155 2.343 2.343 0 0 0 3.217 -1.157c0.982 -2.271 3.574 -3.385 5.903 -2.538 2.328 0.847 3.597 3.368 2.89 5.738a2.343 2.343 0 0 0 1.72 2.954 59.98 59.98 0 0 0 6.206 1.091 2.343 2.343 0 0 0 2.622 -2.187c0.147 -2.468 2.202 -4.401 4.678 -4.401 2.477 0 4.532 1.934 4.678 4.403a2.344 2.344 0 0 0 2.622 2.188 60.039 60.039 0 0 0 6.207 -1.088 2.344 2.344 0 0 0 1.72 -2.955c-0.709 -2.372 0.56 -4.894 2.889 -5.741 2.328 -0.848 4.921 0.268 5.903 2.54a2.344 2.344 0 0 0 3.217 1.158 60.242 60.242 0 0 0 5.453 -3.156 2.343 2.343 0 0 0 0.603 -3.361c-1.474 -1.985 -1.142 -4.787 0.755 -6.379 1.895 -1.59 4.71 -1.431 6.409 0.36a2.344 2.344 0 0 0 1.7 0.731h0.01a2.344 2.344 0 0 0 1.704 -0.745 60.516 60.516 0 0 0 4.05 -4.821 2.344 2.344 0 0 0 0.439 -1.809 2.344 2.344 0 0 0 -1.018 -1.558c-2.061 -1.362 -2.707 -4.108 -1.47 -6.251 1.239 -2.146 3.942 -2.958 6.155 -1.849a2.343 2.343 0 0 0 3.207 -1.177 59.665 59.665 0 0 0 2.158 -5.922 2.343 2.343 0 0 0 -1.701 -2.964c-2.409 -0.571 -3.959 -2.931 -3.528 -5.373 0.43 -2.438 2.69 -4.126 5.145 -3.843a2.345 2.345 0 0 0 2.609 -2.207c0.054 -1.047 0.082 -2.107 0.082 -3.148a61.218 61.218 0 0 0 -0.082 -3.147zm-4.611 3.9c-3.854 0.614 -7.051 3.614 -7.759 7.632 -0.71 4.025 1.273 7.94 4.691 9.832a56.04 56.04 0 0 1 -0.514 1.409c-3.835 -0.747 -7.87 0.977 -9.913 4.516 -2.039 3.532 -1.519 7.884 1.036 10.831a57.095 57.095 0 0 1 -0.968 1.152c-3.347 -2.003 -7.723 -1.759 -10.846 0.861 -3.127 2.624 -4.126 6.895 -2.728 10.541a54.669 54.669 0 0 1 -1.3 0.752c-2.458 -3.035 -6.656 -4.306 -10.494 -2.909 -3.84 1.397 -6.238 5.07 -6.169 8.976 -0.491 0.093 -0.984 0.179 -1.478 0.259 -1.271 -3.693 -4.782 -6.323 -8.866 -6.323 -4.082 0 -7.593 2.629 -8.865 6.32a55.411 55.411 0 0 1 -1.48 -0.26c0.067 -3.904 -2.332 -7.575 -6.169 -8.972 -3.837 -1.396 -8.034 -0.127 -10.492 2.907a55.829 55.829 0 0 1 -1.301 -0.753c1.396 -3.645 0.397 -7.915 -2.729 -10.538 -3.124 -2.621 -7.499 -2.865 -10.845 -0.861a56.073 56.073 0 0 1 -0.968 -1.153c2.555 -2.948 3.075 -7.299 1.036 -10.831 -2.044 -3.54 -6.079 -5.265 -9.915 -4.516a56.755 56.755 0 0 1 -0.513 -1.408c3.419 -1.892 5.403 -5.807 4.693 -9.833 -0.709 -4.019 -3.905 -7.019 -7.76 -7.632a57.568 57.568 0 0 1 0 -1.504c3.854 -0.614 7.051 -3.614 7.759 -7.632 0.71 -4.025 -1.273 -7.94 -4.692 -9.832 0.165 -0.471 0.336 -0.941 0.514 -1.409 3.835 0.748 7.87 -0.977 9.913 -4.516 2.039 -3.532 1.519 -7.884 -1.036 -10.831a55.716 55.716 0 0 1 0.969 -1.152c3.346 2.004 7.722 1.759 10.846 -0.861 3.128 -2.625 4.127 -6.896 2.729 -10.542a55.131 55.131 0 0 1 1.3 -0.752c2.458 3.035 6.656 4.307 10.494 2.909 3.84 -1.397 6.238 -5.07 6.169 -8.976 0.491 -0.093 0.984 -0.179 1.478 -0.259 1.271 3.693 4.782 6.324 8.866 6.324 4.084 0 7.595 -2.631 8.866 -6.324 0.494 0.08 0.987 0.166 1.478 0.259 -0.07 3.906 2.329 7.579 6.169 8.977 3.84 1.398 8.038 0.126 10.495 -2.91a55.217 55.217 0 0 1 1.299 0.752c-1.399 3.646 -0.401 7.918 2.727 10.542 3.125 2.622 7.502 2.866 10.848 0.86a56.121 56.121 0 0 1 0.968 1.152c-2.557 2.948 -3.077 7.3 -1.037 10.833 2.044 3.54 6.08 5.264 9.915 4.516a55.47 55.47 0 0 1 0.513 1.408c-3.42 1.892 -5.403 5.807 -4.693 9.833 0.708 4.019 3.905 7.019 7.759 7.632a57.568 57.568 0 0 1 0 1.504z" fill="#000000" opacity="1" data-original="#000000"/><path d="M60 45.938c-7.754 0 -14.063 6.308 -14.063 14.063s6.308 14.063 14.063 14.063 14.063 -6.308 14.063 -14.063 -6.308 -14.063 -14.063 -14.063zm0 23.438c-5.169 0 -9.375 -4.206 -9.375 -9.375s4.206 -9.375 9.375 -9.375 9.375 4.206 9.375 9.375 -4.206 9.375 -9.375 9.375z" fill="#000000" opacity="1" data-original="#000000"/><path d="M71.07 19.284c-1.25 -0.339 -2.537 0.399 -2.876 1.648 -0.339 1.249 0.399 2.537 1.648 2.876C86.127 28.226 97.5 43.108 97.5 60c0 20.678 -16.822 37.5 -37.5 37.5s-37.5 -16.822 -37.5 -37.5c0 -16.893 11.374 -31.776 27.659 -36.193 1.249 -0.339 1.987 -1.626 1.649 -2.876s-1.627 -1.988 -2.876 -1.649C30.609 24.253 17.813 40.996 17.813 60c0 23.262 18.925 42.188 42.188 42.188s42.188 -18.925 42.188 -42.188C102.188 40.997 89.392 24.254 71.07 19.284z" fill="#000000" opacity="1" data-original="#000000"/><path d="M60 41.25c3.877 0 7.031 -3.154 7.031 -7.031s-3.154 -7.031 -7.031 -7.031 -7.031 3.154 -7.031 7.031 3.154 7.031 7.031 7.031zm0 -9.375c1.292 0 2.344 1.051 2.344 2.344s-1.051 2.344 -2.344 2.344 -2.344 -1.051 -2.344 -2.344 1.051 -2.344 2.344 -2.344zm-13.258 14.867c2.741 -2.741 2.741 -7.202 0 -9.944 -2.741 -2.741 -7.202 -2.741 -9.944 0v0c-2.741 2.741 -2.741 7.202 0 9.944 1.328 1.328 3.094 2.059 4.972 2.059s3.643 -0.731 4.972 -2.059zm-6.629 -6.629c0.914 -0.914 2.401 -0.914 3.315 0 0.914 0.914 0.914 2.401 0 3.315 -0.443 0.443 -1.031 0.686 -1.657 0.686s-1.215 -0.244 -1.657 -0.686c-0.914 -0.914 -0.914 -2.401 0 -3.315zm-12.925 19.887c0 3.877 3.154 7.031 7.031 7.031s7.031 -3.154 7.031 -7.031 -3.154 -7.031 -7.031 -7.031 -7.031 3.154 -7.031 7.031zm9.375 0c0 1.292 -1.051 2.344 -2.344 2.344s-2.344 -1.051 -2.344 -2.344 1.051 -2.344 2.344 -2.344 2.344 1.051 2.344 2.344zm0.236 23.202c1.371 1.371 3.171 2.056 4.972 2.056s3.601 -0.685 4.972 -2.056c2.741 -2.741 2.741 -7.202 0 -9.944 -2.741 -2.741 -7.202 -2.741 -9.944 0 -2.741 2.741 -2.741 7.202 0 9.944zm3.314 -6.629c0.914 -0.914 2.401 -0.914 3.315 0s0.914 2.401 0 3.315c-0.914 0.914 -2.401 0.914 -3.315 0 -0.913 -0.914 -0.913 -2.401 0 -3.315zm12.856 9.208c0 3.877 3.154 7.031 7.031 7.031s7.031 -3.154 7.031 -7.031 -3.154 -7.031 -7.031 -7.031 -7.031 3.154 -7.031 7.031zm9.375 0c0 1.292 -1.051 2.344 -2.344 2.344s-2.344 -1.051 -2.344 -2.344 1.051 -2.344 2.344 -2.344c1.293 0 2.344 1.051 2.344 2.344zm10.915 -12.523c-2.741 2.741 -2.741 7.202 0 9.944 1.371 1.371 3.171 2.056 4.972 2.056 1.8 0 3.601 -0.685 4.972 -2.056 2.741 -2.741 2.741 -7.202 0 -9.944 -2.741 -2.741 -7.202 -2.741 -9.944 0zm6.629 3.315c0.914 0.914 0.914 2.401 0 3.315 -0.914 0.914 -2.401 0.914 -3.315 0 -0.914 -0.914 -0.914 -2.401 0 -3.315a2.336 2.336 0 0 1 1.657 -0.685c0.6 0 1.2 0.229 1.657 0.685zM92.813 60c0 -3.877 -3.154 -7.031 -7.031 -7.031s-7.031 3.154 -7.031 7.031 3.154 7.031 7.031 7.031 7.031 -3.154 7.031 -7.031zm-9.375 0c0 -1.292 1.051 -2.344 2.344 -2.344s2.344 1.051 2.344 2.344 -1.051 2.344 -2.344 2.344 -2.344 -1.051 -2.344 -2.344zm-0.236 -23.202c-2.741 -2.741 -7.202 -2.741 -9.944 0 -2.741 2.741 -2.741 7.202 0 9.944 1.328 1.328 3.094 2.06 4.972 2.06 1.878 0 3.644 -0.731 4.972 -2.06 2.741 -2.741 2.741 -7.202 0 -9.944zm-3.315 6.629c-0.443 0.443 -1.031 0.686 -1.657 0.686s-1.215 -0.244 -1.657 -0.687c-0.914 -0.914 -0.914 -2.401 0 -3.315a2.337 2.337 0 0 1 1.657 -0.685 2.337 2.337 0 0 1 1.657 0.685c0.914 0.914 0.914 2.401 0 3.315zm-19.886 -20.927c1.294 0 2.344 -1.049 2.344 -2.344s-1.049 -2.344 -2.344 -2.344h-0.002c-1.294 0 -2.343 1.049 -2.343 2.344s1.05 2.344 2.344 2.344z" fill="#000000" opacity="1" data-original="#000000"/></g></svg>